<svg viewBox="0 0 120 120" xmlns="http://www.w3.org/2000/svg">
  <rect width="120" height="120" fill="#ffffff"/>
  <rect x="6" y="6" width="108" height="108" fill="none" stroke="#111111" stroke-width="4"/>

  <rect x="12" y="12" width="30" height="30" fill="#111111"/>
  <rect x="16" y="16" width="22" height="22" fill="#ffffff"/>
  <rect x="20" y="20" width="14" height="14" fill="#111111"/>

  <rect x="78" y="12" width="30" height="30" fill="#111111"/>
  <rect x="82" y="16" width="22" height="22" fill="#ffffff"/>
  <rect x="86" y="20" width="14" height="14" fill="#111111"/>

  <rect x="12" y="78" width="30" height="30" fill="#111111"/>
  <rect x="16" y="82" width="22" height="22" fill="#ffffff"/>
  <rect x="20" y="86" width="14" height="14" fill="#111111"/>

  <rect x="52" y="52" width="8" height="8" fill="#111111"/>
  <rect x="64" y="52" width="8" height="8" fill="#111111"/>
  <rect x="52" y="64" width="8" height="8" fill="#111111"/>
  <rect x="64" y="64" width="8" height="8" fill="#ffffff"/>
  <rect x="72" y="64" width="8" height="8" fill="#111111"/>

  <rect x="48" y="28" width="6" height="6" fill="#111111"/>
  <rect x="56" y="36" width="6" height="6" fill="#111111"/>
  <rect x="64" y="28" width="6" height="6" fill="#111111"/>
  <rect x="72" y="40" width="6" height="6" fill="#111111"/>

  <rect x="40" y="72" width="6" height="6" fill="#111111"/>
  <rect x="48" y="80" width="6" height="6" fill="#111111"/>
  <rect x="56" y="72" width="6" height="6" fill="#111111"/>
  <rect x="64" y="88" width="6" height="6" fill="#111111"/>
  <rect x="72" y="80" width="6" height="6" fill="#111111"/>
</svg>
