<svg width="29" height="26" viewBox="0 0 29 26" fill="none" xmlns="http://www.w3.org/2000/svg">
<g clip-path="url(#clip0_550_520)">
<path d="M27.1028 22.8526L23.0374 18.7474L24.9346 16.8316L29 20.9368L27.1028 22.8526ZM22.2243 6.43158L20.3271 4.51579L24.3925 0.410526L26.2897 2.32632L22.2243 6.43158ZM6.7757 6.43158L2.71028 2.32632L4.60748 0.410526L8.6729 4.51579L6.7757 6.43158ZM1.8972 22.8526L0 20.9368L4.06542 16.8316L5.96262 18.7474L1.8972 22.8526ZM6.13201 26L8.33411 16.3868L0.948598 9.92105L10.7056 9.06579L14.5 0L18.2944 9.06579L28.0514 9.92105L20.6659 16.3868L22.868 26L14.5 20.9026L6.13201 26Z" fill="black"/>
</g>
<defs>
<clipPath id="clip0_550_520">
<rect width="29" height="26" fill="white"/>
</clipPath>
</defs>
</svg>
